<svg width="512" height="512" viewBox="0 0 512 512" fill="none" xmlns="http://www.w3.org/2000/svg">
  <!-- Background -->
  <rect width="512" height="512" rx="115" fill="url(#gradient)"/>
  
  <!-- Gradient Definition -->
  <defs>
    <linearGradient id="gradient" x1="0" y1="0" x2="512" y2="512" gradientUnits="userSpaceOnUse">
      <stop offset="0%" stop-color="#14b8a6"/>
      <stop offset="100%" stop-color="#10b981"/>
    </linearGradient>
    <filter id="shadow">
      <feDropShadow dx="0" dy="4" stdDeviation="8" flood-opacity="0.3"/>
    </filter>
  </defs>
  
  <!-- Head Silhouette -->
  <ellipse cx="256" cy="200" rx="90" ry="110" fill="white" opacity="0.9" filter="url(#shadow)"/>
  
  <!-- Hair Strands -->
  <path d="M 200 150 Q 180 120 170 100 Q 160 80 165 60" stroke="white" stroke-width="8" stroke-linecap="round" fill="none" opacity="0.8"/>
  <path d="M 230 140 Q 220 110 220 80 Q 220 50 225 30" stroke="white" stroke-width="8" stroke-linecap="round" fill="none" opacity="0.8"/>
  <path d="M 256 135 Q 256 100 256 65 Q 256 30 256 10" stroke="white" stroke-width="10" stroke-linecap="round" fill="none" opacity="0.9"/>
  <path d="M 282 140 Q 292 110 292 80 Q 292 50 287 30" stroke="white" stroke-width="8" stroke-linecap="round" fill="none" opacity="0.8"/>
  <path d="M 312 150 Q 332 120 342 100 Q 352 80 347 60" stroke="white" stroke-width="8" stroke-linecap="round" fill="none" opacity="0.8"/>
  
  <!-- AI Brain Symbol -->
  <circle cx="256" cy="200" r="35" fill="none" stroke="white" stroke-width="4" opacity="0.6"/>
  <circle cx="256" cy="200" r="25" fill="none" stroke="white" stroke-width="3" opacity="0.7"/>
  <circle cx="256" cy="200" r="15" fill="white" opacity="0.8"/>
  
  <!-- Neural Network Lines -->
  <line x1="256" y1="185" x2="256" y2="165" stroke="white" stroke-width="2" opacity="0.6"/>
  <line x1="241" y1="193" x2="225" y2="180" stroke="white" stroke-width="2" opacity="0.6"/>
  <line x1="271" y1="193" x2="287" y2="180" stroke="white" stroke-width="2" opacity="0.6"/>
  <line x1="241" y1="207" x2="225" y2="220" stroke="white" stroke-width="2" opacity="0.6"/>
  <line x1="271" y1="207" x2="287" y2="220" stroke="white" stroke-width="2" opacity="0.6"/>
  
  <!-- Medical Cross -->
  <rect x="246" y="320" width="20" height="60" rx="3" fill="white" opacity="0.9"/>
  <rect x="226" y="340" width="60" height="20" rx="3" fill="white" opacity="0.9"/>
  
  <!-- Microscope Symbol -->
  <circle cx="256" cy="430" r="25" fill="white" opacity="0.3"/>
  <rect x="251" y="405" width="10" height="30" fill="white" opacity="0.8"/>
  <circle cx="256" cy="400" r="15" fill="none" stroke="white" stroke-width="3" opacity="0.8"/>
  
  <!-- Text -->
  <text x="256" y="485" font-family="Arial, sans-serif" font-size="32" font-weight="bold" fill="white" text-anchor="middle" opacity="0.9">HAIR AI</text>
</svg>
